<svg xmlns="http://www.w3.org/2000/svg" aria-hidden="true" style="position:absolute;width:0;height:0;overflow:hidden">
  <defs>
    <symbol id="icon-features" viewBox="0 0 32 32">
      <path fill="none" stroke="#9e54d7" stroke-width="1.231" d="m25.529 7.615 5.59 5.46-8.504 8.309h-7.529l8.504-8.308L18 7.614h7.529zM6.471 24.385l-5.59-5.46 8.504-8.309h7.529L8.41 18.924l.451.44L14 24.386H6.471z" style="stroke:var(--color1, #9e54d7)"/>
    </symbol>
    <symbol id="icon-instagram" viewBox="0 0 32 32">
      <path fill="#fcc000" d="M10.4 2.667h11.2a7.739 7.739 0 0 1 7.733 7.733v11.2a7.733 7.733 0 0 1-7.733 7.733H10.4A7.739 7.739 0 0 1 2.667 21.6V10.4A7.733 7.733 0 0 1 10.4 2.667zm-.267 2.666a4.8 4.8 0 0 0-4.8 4.8v11.733c0 2.653 2.147 4.8 4.8 4.8h11.733a4.8 4.8 0 0 0 4.8-4.8V10.133c0-2.653-2.147-4.8-4.8-4.8H10.133zm12.867 2a1.663 1.663 0 0 1 1.179 2.845 1.665 1.665 0 0 1-2.357 0A1.664 1.664 0 0 1 23 7.334zm-7 2a6.67 6.67 0 0 1 4.714 11.381A6.668 6.668 0 1 1 16 9.333zM16 12a4.003 4.003 0 0 0-2.828 6.829A3.999 3.999 0 0 0 20.001 16 4.004 4.004 0 0 0 16 12z" style="fill:var(--color2, #fcc000)"/>
    </symbol>
    <symbol id="icon-menu" viewBox="0 0 32 32">
      <path fill="none" stroke="#3c234f" stroke-linecap="round" stroke-width="1.454" d="M24.727 21.818H7.272M24.727 16H7.272M24.727 10.182H7.272" style="stroke:var(--color3, #3c234f)"/>
    </symbol>
    <symbol id="icon-twitter" viewBox="0 0 32 32">
      <path fill="none" stroke="#fcc000" stroke-linecap="round" stroke-linejoin="round" stroke-width="2" d="M3.333 16c0-5.971 0-8.957 1.855-10.812s4.84-1.855 10.813-1.855c5.971 0 8.956 0 10.811 1.855s1.855 4.84 1.855 10.812c0 5.971 0 8.957-1.855 10.812S21.972 28.667 16 28.667c-5.971 0-8.956 0-10.812-1.855C3.335 24.956 3.333 21.972 3.333 16z" style="stroke:var(--color2, #fcc000)"/>
      <path fill="none" stroke="#fcc000" stroke-linecap="round" stroke-linejoin="round" stroke-width="2" d="m9.334 22.667 5.592-5.591m-.001 0L9.333 9.333h3.703l4.04 5.592 5.591-5.592m-7.742 7.743 4.037 5.591h3.704l-5.591-7.743" style="stroke:var(--color2, #fcc000)"/>
    </symbol>
    <symbol id="icon-youtube" viewBox="0 0 32 32">
      <path fill="#fcc000" d="m13.334 11.334 8 4.667-8 4.667v-9.333z" style="fill:var(--color2, #fcc000)"/>
      <path fill="none" stroke="#fcc000" stroke-linecap="round" stroke-linejoin="round" stroke-width="2.667" d="M16 6.667c12 0 12 0 12 9.333s0 9.333-12 9.333-12 0-12-9.333 0-9.333 12-9.333z" style="stroke:var(--color2, #fcc000)"/>
    </symbol>
  </defs>
</svg>
